<svg width="1600" height="900" viewBox="0 0 1600 900" fill="none" xmlns="http://www.w3.org/2000/svg">
  <rect width="1600" height="900" fill="#07090D"/>
  <rect x="90" y="90" width="1420" height="720" rx="36" fill="#0C1017" stroke="white" stroke-opacity="0.08"/>
  <path d="M260 620C405 530 535 495 655 495C790 495 910 545 1030 545C1130 545 1245 510 1370 395V680H260V620Z" fill="#22D3EE" fill-opacity="0.1"/>
  <path d="M260 530C400 445 525 410 645 410C780 410 910 465 1030 465C1135 465 1245 430 1370 320V680H260V530Z" fill="#6366F1" fill-opacity="0.16"/>
  <path d="M260 445C395 365 520 325 640 325C775 325 915 385 1030 385C1140 385 1250 350 1370 250V680H260V445Z" fill="white" fill-opacity="0.08"/>
  <path d="M260 445C395 365 520 325 640 325C775 325 915 385 1030 385C1140 385 1250 350 1370 250" stroke="white" stroke-opacity="0.16" stroke-width="2"/>
  <path d="M260 530C400 445 525 410 645 410C780 410 910 465 1030 465C1135 465 1245 430 1370 320" stroke="white" stroke-opacity="0.16" stroke-width="2"/>
  <path d="M260 620C405 530 535 495 655 495C790 495 910 545 1030 545C1130 545 1245 510 1370 395" stroke="white" stroke-opacity="0.16" stroke-width="2"/>
</svg>
