<svg width="1600" height="900" viewBox="0 0 1600 900" fill="none" xmlns="http://www.w3.org/2000/svg">
  <rect width="1600" height="900" fill="#07090D"/>
  <rect x="90" y="90" width="1420" height="720" rx="36" fill="#0B0F15" stroke="white" stroke-opacity="0.08"/>
  <rect x="260" y="220" width="1080" height="460" rx="28" fill="white" fill-opacity="0.03" stroke="white" stroke-opacity="0.08"/>
  <rect x="330" y="290" width="280" height="56" rx="18" fill="#6366F1" fill-opacity="0.18"/>
  <rect x="330" y="392" width="460" height="14" rx="7" fill="white" fill-opacity="0.18"/>
  <rect x="330" y="438" width="620" height="14" rx="7" fill="white" fill-opacity="0.12"/>
  <rect x="330" y="484" width="390" height="14" rx="7" fill="white" fill-opacity="0.1"/>
  <rect x="1010" y="286" width="210" height="210" rx="28" fill="#22D3EE" fill-opacity="0.12" stroke="white" stroke-opacity="0.08"/>
  <path d="M1115 330L1141 382H1194L1151 413L1168 470L1115 437L1062 470L1079 413L1036 382H1089L1115 330Z" fill="white" fill-opacity="0.38"/>
  <rect x="1010" y="536" width="210" height="74" rx="20" fill="white" fill-opacity="0.04" stroke="white" stroke-opacity="0.08"/>
</svg>
