<svg width="1600" height="900" viewBox="0 0 1600 900" fill="none" xmlns="http://www.w3.org/2000/svg">
  <rect width="1600" height="900" fill="#07090D"/>
  <rect x="90" y="90" width="1420" height="720" rx="36" fill="#0B0F15" stroke="white" stroke-opacity="0.08"/>
  <rect x="250" y="190" width="1100" height="520" rx="28" fill="white" fill-opacity="0.03" stroke="white" stroke-opacity="0.08"/>
  <path d="M340 548C420 548 455 304 545 304C615 304 664 428 735 428C804 428 832 264 904 264C993 264 1022 592 1103 592C1172 592 1215 394 1260 394" stroke="#22D3EE" stroke-width="6" stroke-linecap="round"/>
  <path d="M340 612H1260" stroke="white" stroke-opacity="0.08" stroke-width="2"/>
  <path d="M340 270H1260" stroke="white" stroke-opacity="0.08" stroke-width="2"/>
  <circle cx="904" cy="264" r="14" fill="#6366F1"/>
  <circle cx="1103" cy="592" r="14" fill="#F59E0B"/>
  <circle cx="735" cy="428" r="14" fill="#34D399"/>
</svg>
